# xmcd
#
# Track frame offsets:
#	150
#	19259
#	34531
#	49931
#	74770
#	95201
#	105695
#	126022
#	145460
#	165327
#
# Disc length: 2427 seconds
#
# Revision: 1
# Processed by: cddbd v1.5.2PL0 Copyright (c) Steve Scherf et al.
# Submitted via: audiograbber 1.83.01
#
DISCID=8f09790a
DTITLE=Charlie Daniels - Off The Grid: Doin' It Dylan
DYEAR=2014
DGENRE=Country
TTITLE0=Tangled up in Blue
TTITLE1=Times They Are a Changin'
TTITLE2=I'll Be Your Baby Tonight
TTITLE3=Gotta Serve Somebody
TTITLE4=I Shall Be Released
TTITLE5=Country Pie
TTITLE6=Mr. Tambourine Man
TTITLE7=Hard Rain's a Gonna Fall
TTITLE8=Just Like a Woman
TTITLE9=Quinn the Eskimo (The Mighty Quinn)
EXTD=
EXTT0=
EXTT1=
EXTT2=
EXTT3=
EXTT4=
EXTT5=
EXTT6=
EXTT7=
EXTT8=
EXTT9=
PLAYORDER=
